<svg 
 xmlns="http://www.w3.org/2000/svg"
 xmlns:xlink="http://www.w3.org/1999/xlink"
 width="80px" height="38px">
<path fill-rule="evenodd"  fill="rgb(255, 255, 255)"
 d="M77.160,34.862 C75.264,36.777 72.976,37.735 70.297,37.735 C67.617,37.735 65.326,36.774 63.424,34.853 C61.522,32.932 60.572,30.617 60.572,27.908 C60.572,25.149 61.522,22.828 63.424,20.945 C65.326,19.062 67.672,18.120 70.463,18.120 C73.081,18.120 75.326,19.080 77.197,21.001 C79.068,22.923 80.003,25.225 80.003,27.908 C80.003,30.629 79.055,32.947 77.160,34.862 ZM72.186,25.915 C71.667,25.367 71.031,25.093 70.278,25.093 C69.537,25.093 68.907,25.367 68.389,25.915 C67.870,26.463 67.611,27.133 67.611,27.927 C67.611,28.708 67.873,29.376 68.398,29.930 C68.923,30.485 69.549,30.762 70.278,30.762 C71.019,30.762 71.652,30.485 72.177,29.930 C72.702,29.376 72.964,28.708 72.964,27.927 C72.964,27.133 72.705,26.463 72.186,25.915 ZM51.079,11.562 L58.007,11.562 L58.007,37.357 L51.079,37.357 L51.079,11.562 ZM38.948,37.735 C37.565,37.735 36.216,37.426 34.901,36.809 C33.586,36.191 32.502,35.360 31.650,34.314 C30.168,32.500 29.427,30.151 29.427,27.266 L29.427,11.562 L36.355,11.562 L36.355,27.001 C36.355,29.508 37.238,30.762 39.004,30.762 C39.757,30.762 40.396,30.500 40.921,29.977 C41.446,29.455 41.709,28.822 41.709,28.078 C41.709,27.310 41.461,26.664 40.968,26.141 C40.474,25.619 39.868,25.357 39.152,25.357 C38.646,25.357 38.065,25.584 37.411,26.037 L37.411,18.252 C38.226,18.176 38.843,18.139 39.263,18.139 C41.869,18.139 44.101,19.096 45.960,21.011 C47.818,22.926 48.748,25.231 48.748,27.927 C48.748,30.686 47.803,33.010 45.913,34.900 C44.024,36.790 41.702,37.735 38.948,37.735 Z"/>
<path fill-rule="evenodd"  fill="rgb(235, 97, 101)"
 d="M3.920,14.850 C1.309,17.471 0.003,20.671 0.003,24.450 C0.003,28.192 1.299,31.385 3.893,34.031 C6.486,36.676 9.616,37.999 13.284,37.999 C16.976,37.999 20.113,36.683 22.694,34.050 C25.275,31.417 26.566,28.217 26.566,24.450 C26.566,20.746 25.284,17.565 22.722,14.907 C20.159,12.249 17.088,10.920 13.506,10.920 C9.728,10.920 6.532,12.230 3.920,14.850 ZM17.239,20.246 C18.319,21.398 18.860,22.800 18.860,24.450 C18.860,26.101 18.319,27.502 17.239,28.655 C16.158,29.807 14.840,30.384 13.284,30.384 C11.753,30.384 10.441,29.804 9.348,28.645 C8.255,27.486 7.708,26.088 7.708,24.450 C7.708,22.813 8.252,21.414 9.339,20.255 C10.425,19.096 11.740,18.516 13.284,18.516 C14.840,18.516 16.158,19.093 17.239,20.246 Z"/>
<path fill-rule="evenodd"  fill="rgb(235, 97, 101)"
 d="M31.090,-0.000 L34.915,-0.000 C36.349,-0.000 37.511,1.186 37.511,2.649 C37.511,4.112 36.349,5.298 34.915,5.298 L31.090,5.298 C29.656,5.298 28.494,4.112 28.494,2.649 C28.494,1.186 29.656,-0.000 31.090,-0.000 Z"/>
</svg>