<svg width="422" height="55" viewBox="0 0 422 55" fill="none" xmlns="http://www.w3.org/2000/svg">
<path d="M4.47035e-08 41.1L3.6 40.2V1.8L4.47035e-08 0.899996V-2.86102e-06H16.8C23.44 -2.86102e-06 28.2 1.1 31.08 3.3C33.96 5.46 35.4 8.66 35.4 12.9C35.4 17.14 33.96 20.36 31.08 22.56C28.2 24.72 23.44 25.8 16.8 25.8H13.5V40.2L17.1 41.1V42H4.47035e-08V41.1ZM16.8 24.3C19.32 24.3 21.34 23.34 22.86 21.42C24.42 19.5 25.2 16.66 25.2 12.9C25.2 9.18 24.42 6.36 22.86 4.44C21.34 2.48 19.32 1.5 16.8 1.5H13.5V24.3H16.8ZM54.6164 42.9C49.6564 42.9 45.7564 41.5 42.9164 38.7C40.1164 35.86 38.7164 31.96 38.7164 27C38.7164 22.04 40.1164 18.16 42.9164 15.36C45.7564 12.52 49.6564 11.1 54.6164 11.1C59.5764 11.1 63.4564 12.52 66.2564 15.36C69.0964 18.16 70.5164 22.04 70.5164 27C70.5164 31.96 69.0964 35.86 66.2564 38.7C63.4564 41.5 59.5764 42.9 54.6164 42.9ZM54.6164 41.7C56.2164 41.7 57.5564 40.58 58.6364 38.34C59.7564 36.1 60.3164 32.32 60.3164 27C60.3164 21.68 59.7564 17.9 58.6364 15.66C57.5564 13.42 56.2164 12.3 54.6164 12.3C53.0164 12.3 51.6564 13.42 50.5364 15.66C49.4564 17.9 48.9164 21.68 48.9164 27C48.9164 32.32 49.4564 36.1 50.5364 38.34C51.6564 40.58 53.0164 41.7 54.6164 41.7ZM91.2375 42.9C86.2775 42.9 82.3775 41.5 79.5375 38.7C76.7375 35.86 75.3375 31.96 75.3375 27C75.3375 22.04 76.7375 18.16 79.5375 15.36C82.3775 12.52 86.2775 11.1 91.2375 11.1C96.1975 11.1 100.078 12.52 102.878 15.36C105.718 18.16 107.138 22.04 107.138 27C107.138 31.96 105.718 35.86 102.878 38.7C100.078 41.5 96.1975 42.9 91.2375 42.9ZM91.2375 41.7C92.8375 41.7 94.1775 40.58 95.2575 38.34C96.3775 36.1 96.9375 32.32 96.9375 27C96.9375 21.68 96.3775 17.9 95.2575 15.66C94.1775 13.42 92.8375 12.3 91.2375 12.3C89.6375 12.3 88.2775 13.42 87.1575 15.66C86.0775 17.9 85.5375 21.68 85.5375 27C85.5375 32.32 86.0775 36.1 87.1575 38.34C88.2775 40.58 89.6375 41.7 91.2375 41.7ZM111.659 54.9C108.659 54.9 106.459 54.4 105.059 53.4C103.659 52.4 102.959 51 102.959 49.2C102.959 47.84 103.379 46.74 104.219 45.9C105.019 45.1 106.099 44.7 107.459 44.7C107.779 44.7 108.099 44.72 108.419 44.76C108.739 44.84 108.959 44.88 109.079 44.88L109.859 45V53.4L110.219 53.58C110.619 53.66 110.899 53.7 111.059 53.7C112.299 53.7 113.299 52.94 114.059 51.42C114.859 49.94 115.259 47.4 115.259 43.8V13.8L111.659 12.9V12H119.459C123.059 12 124.859 13.8 124.859 17.4V43.8C124.859 45.92 124.339 47.82 123.299 49.5C122.259 51.18 120.739 52.5 118.739 53.46C116.739 54.42 114.379 54.9 111.659 54.9ZM119.459 8.4C118.259 8.4 117.259 8 116.459 7.2C115.659 6.4 115.259 5.4 115.259 4.2C115.259 3 115.659 2 116.459 1.2C117.259 0.399998 118.259 -2.86102e-06 119.459 -2.86102e-06C120.659 -2.86102e-06 121.659 0.399998 122.459 1.2C123.259 2 123.659 3 123.659 4.2C123.659 5.4 123.259 6.4 122.459 7.2C121.659 8 120.659 8.4 119.459 8.4ZM143.463 42.9C139.903 42.9 137.163 42.14 135.243 40.62C133.323 39.1 132.363 37.16 132.363 34.8C132.363 33.24 132.703 31.7 133.383 30.18C133.663 29.46 134.023 28.8 134.463 28.2C136.103 27.8 137.883 27.44 139.803 27.12C144.123 26.4 147.943 25.96 151.263 25.8V24C151.263 19.56 150.723 16.5 149.643 14.82C148.563 13.14 146.903 12.3 144.663 12.3C143.823 12.3 143.103 12.4 142.503 12.6L141.663 12.9V21.9L140.883 22.08C140.243 22.16 139.703 22.2 139.263 22.2C137.903 22.2 136.803 21.8 135.963 21C135.163 20.16 134.763 19.06 134.763 17.7C134.763 15.86 135.683 14.3 137.523 13.02C139.403 11.74 142.183 11.1 145.863 11.1C148.983 11.1 151.663 11.66 153.903 12.78C156.183 13.86 157.903 15.38 159.063 17.34C160.263 19.26 160.863 21.48 160.863 24V40.2L164.463 41.1V42H159.063C156.663 42 154.803 41.26 153.483 39.78C152.923 39.18 152.483 38.42 152.163 37.5C151.603 38.5 150.943 39.4 150.183 40.2C148.383 42 146.143 42.9 143.463 42.9ZM145.863 40.8C147.343 40.8 148.683 40 149.883 38.4C150.323 37.8 150.783 37 151.263 36V27.3C149.423 27.3 147.663 27.4 145.983 27.6C144.743 27.76 143.903 27.86 143.463 27.9C143.263 28.34 143.063 28.94 142.863 29.7C142.463 31.22 142.263 32.72 142.263 34.2C142.263 36.44 142.603 38.1 143.283 39.18C143.963 40.26 144.823 40.8 145.863 40.8ZM185.508 41.1L189.108 40.2V1.8L185.508 0.899996V-2.86102e-06H202.608V0.899996L199.008 1.8V20.64L213.708 2.7L209.208 0.899996V-2.86102e-06H220.608V0.899996L215.808 2.7L205.308 15.6L221.508 40.2L224.508 41.1V42H216.108C214.308 42 212.768 41.56 211.488 40.68C210.248 39.76 209.088 38.5 208.008 36.9L199.008 23.1V40.2L202.608 41.1V42H185.508V41.1ZM226.334 41.1L229.934 40.2V13.8L226.334 12.9V12H231.734C234.094 12 235.954 12.76 237.314 14.28C237.834 14.88 238.274 15.62 238.634 16.5C239.234 15.62 239.974 14.82 240.854 14.1C242.854 12.5 245.094 11.7 247.574 11.7C249.694 11.7 251.274 12.2 252.314 13.2C253.394 14.16 253.934 15.56 253.934 17.4C253.934 18.76 253.514 19.86 252.674 20.7C251.874 21.5 250.794 21.9 249.434 21.9C248.874 21.9 248.314 21.86 247.754 21.78L247.034 21.6V13.2C244.994 13.2 243.134 14 241.454 15.6C240.654 16.4 240.014 17.2 239.534 18V40.2L243.134 41.1V42H226.334V41.1ZM256.627 41.1L260.227 40.2V13.8L256.627 12.9V12H264.427C268.027 12 269.827 13.8 269.827 17.4V40.2L273.427 41.1V42H256.627V41.1ZM264.427 8.4C263.227 8.4 262.227 8 261.427 7.2C260.627 6.4 260.227 5.4 260.227 4.2C260.227 3 260.627 2 261.427 1.2C262.227 0.399998 263.227 -2.86102e-06 264.427 -2.86102e-06C265.627 -2.86102e-06 266.627 0.399998 267.427 1.2C268.227 2 268.627 3 268.627 4.2C268.627 5.4 268.227 6.4 267.427 7.2C266.627 8 265.627 8.4 264.427 8.4ZM291.117 42.9C288.637 42.9 286.417 42.36 284.457 41.28C283.497 40.76 282.717 40.2 282.117 39.6C281.477 40.48 280.777 41.16 280.017 41.64C279.657 41.88 279.257 42.1 278.817 42.3H277.317V32.1H279.717C280.237 33.78 280.997 35.34 281.997 36.78C284.117 39.86 286.757 41.4 289.917 41.4C291.597 41.4 292.857 41 293.697 40.2C294.577 39.36 295.017 38.16 295.017 36.6C295.017 35.28 294.417 34.18 293.217 33.3C292.057 32.38 290.217 31.26 287.697 29.94C285.537 28.86 283.777 27.9 282.417 27.06C281.097 26.18 279.957 25.1 278.997 23.82C278.077 22.5 277.617 20.96 277.617 19.2C277.617 16.8 278.637 14.86 280.677 13.38C282.757 11.86 285.937 11.1 290.217 11.1C292.337 11.1 294.297 11.66 296.097 12.78C296.977 13.3 297.737 13.84 298.377 14.4C298.897 13.68 299.597 13 300.477 12.36C301.157 11.96 301.557 11.74 301.677 11.7H303.177V21.9H300.777C300.177 20.18 299.437 18.64 298.557 17.28C296.557 14.16 294.177 12.6 291.417 12.6C290.337 12.6 289.417 13 288.657 13.8C287.897 14.6 287.517 15.6 287.517 16.8C287.517 18.32 288.157 19.6 289.437 20.64C290.717 21.64 292.657 22.8 295.257 24.12C297.377 25.2 299.057 26.16 300.297 27C301.577 27.8 302.657 28.8 303.537 30C304.457 31.2 304.917 32.6 304.917 34.2C304.917 40 300.317 42.9 291.117 42.9ZM309.42 41.1L313.02 40.2V1.8L309.42 0.899996V-2.86102e-06H317.22C320.82 -2.86102e-06 322.62 1.8 322.62 5.4V15C323.22 14.2 323.84 13.56 324.48 13.08C326.2 11.76 328.18 11.1 330.42 11.1C332.66 11.1 334.66 11.58 336.42 12.54C338.22 13.46 339.62 14.68 340.62 16.2C341.62 17.72 342.12 19.32 342.12 21V40.2L345.72 41.1V42H337.92C334.32 42 332.52 40.2 332.52 36.6V21C332.52 18.48 332.06 16.56 331.14 15.24C330.26 13.88 329.22 13.2 328.02 13.2C326.5 13.2 325.14 14 323.94 15.6C323.42 16.28 322.98 17.08 322.62 18V40.2L326.22 41.1V42H309.42V41.1ZM349.322 41.1L352.922 40.2V13.8L349.322 12.9V12H354.722C357.082 12 358.942 12.76 360.302 14.28C360.822 14.88 361.262 15.62 361.622 16.5C362.182 15.46 362.842 14.56 363.602 13.8C365.402 12 367.642 11.1 370.322 11.1C372.562 11.1 374.562 11.58 376.322 12.54C378.122 13.46 379.522 14.68 380.522 16.2C381.522 17.72 382.022 19.32 382.022 21V40.2L385.622 41.1V42H377.822C374.222 42 372.422 40.2 372.422 36.6V21C372.422 18.48 371.962 16.56 371.042 15.24C370.162 13.88 369.122 13.2 367.922 13.2C366.402 13.2 365.042 14 363.842 15.6C363.322 16.28 362.882 17.08 362.522 18V40.2L366.122 41.1V42H349.322V41.1ZM400.924 42.9C397.364 42.9 394.624 42.14 392.704 40.62C390.784 39.1 389.824 37.16 389.824 34.8C389.824 33.24 390.164 31.7 390.844 30.18C391.124 29.46 391.484 28.8 391.924 28.2C393.564 27.8 395.344 27.44 397.264 27.12C401.584 26.4 405.404 25.96 408.724 25.8V24C408.724 19.56 408.184 16.5 407.104 14.82C406.024 13.14 404.364 12.3 402.124 12.3C401.284 12.3 400.564 12.4 399.964 12.6L399.124 12.9V21.9L398.344 22.08C397.704 22.16 397.164 22.2 396.724 22.2C395.364 22.2 394.264 21.8 393.424 21C392.624 20.16 392.224 19.06 392.224 17.7C392.224 15.86 393.144 14.3 394.984 13.02C396.864 11.74 399.644 11.1 403.324 11.1C406.444 11.1 409.124 11.66 411.364 12.78C413.644 13.86 415.364 15.38 416.524 17.34C417.724 19.26 418.324 21.48 418.324 24V40.2L421.924 41.1V42H416.524C414.124 42 412.264 41.26 410.944 39.78C410.384 39.18 409.944 38.42 409.624 37.5C409.064 38.5 408.404 39.4 407.644 40.2C405.844 42 403.604 42.9 400.924 42.9ZM403.324 40.8C404.804 40.8 406.144 40 407.344 38.4C407.784 37.8 408.244 37 408.724 36V27.3C406.884 27.3 405.124 27.4 403.444 27.6C402.204 27.76 401.364 27.86 400.924 27.9C400.724 28.34 400.524 28.94 400.324 29.7C399.924 31.22 399.724 32.72 399.724 34.2C399.724 36.44 400.064 38.1 400.744 39.18C401.424 40.26 402.284 40.8 403.324 40.8Z" fill="white"/>
</svg>
